<mxfile host="app.diagrams.net" modified="2024-05-20T14:44:18.895Z" agent="Mozilla/5.0 (X11; Ubuntu; Linux x86_64; rv:125.0) Gecko/20100101 Firefox/125.0" version="24.4.4" etag="f4QHdOyxgj-X8798ihHZ" type="github">
  <diagram name="第 1 页" id="q4NgbhJ9J9iBgO9fOqsM">
    <mxGraphModel>
      <root>
        <mxCell id="0" />
        <mxCell id="1" parent="0" />
      </root>
    </mxGraphModel>
  </diagram>
</mxfile>
